<svg width="375" height="326" fill="none" xmlns="http://www.w3.org/2000/svg"><rect opacity=".08" width="223" height="223" rx="111.5" transform="matrix(1 0 0 -1 77 276)" fill="#2D2E40"/><rect opacity=".5" x=".5" y="-.5" width="251" height="251" rx="125.5" transform="matrix(1 0 0 -1 62 288)" stroke="#2D2E40"/><rect opacity=".25" x=".5" y="-.5" width="325" height="325" rx="162.5" transform="matrix(1 0 0 -1 25 325)" stroke="#2D2E40"/><g filter="url(#filter0_d)"><rect x="63" y="75" width="252" height="173" rx="12" fill="#535353"/><rect x="64" y="77" width="250" height="170" rx="10" fill="#1D1D25"/><rect x="71" y="83" width="237" height="157.94" rx="3" fill="url(#paint0_linear)"/><mask id="a" maskUnits="userSpaceOnUse" x="71" y="83" width="237" height="158"><rect x="71" y="83" width="237" height="157.94" rx="3" fill="#fff"/></mask><g mask="url(#a)"><rect x="70.848" y="111.352" width="237" height="129.709" rx="3" fill="#F9F6F6"/><rect x="104.478" y="100.615" width="49.951" height="120.635" rx="3" fill="#fff"/><rect x="162.93" y="100.615" width="111.592" height="120.635" rx="3" fill="#fff"/><rect x="167.713" y="107.02" width="102.027" height="28.291" rx="3" fill="#E7E7E7"/><rect x="167.713" y="141.182" width="30.289" height="28.291" rx="3" fill="#E7E7E7"/><rect x="205.442" y="141.182" width="64.298" height="28.291" rx="3" fill="#E7E7E7"/></g><rect opacity=".098" x="188" y="68" width="6.12" height="1" rx=".5" fill="#4A5166"/><rect opacity=".098" x="195.56" y="68" width="1.44" height="1" rx=".5" fill="#4A5166"/><path d="M24 249a3 3 0 013-3h321.953a3 3 0 013 3v4.602H24V249z" fill="#52526F"/><mask id="b" maskUnits="userSpaceOnUse" x="24" y="246" width="328" height="8"><path d="M24 249a3 3 0 013-3h321.953a3 3 0 013 3v4.602H24V249z" fill="#fff"/></mask><g mask="url(#b)"><rect x="161.193" y="227.374" width="53.567" height="23.187" rx="10" fill="#2F2F47"/></g><path d="M24 254h328a3 3 0 01-3 3H27a3 3 0 01-3-3z" fill="#393A56"/></g><defs><linearGradient id="paint0_linear" x1="-47.5" y1="161.97" x2="98.269" y2="380.707" gradientUnits="userSpaceOnUse"><stop stop-color="#FF8F71"/><stop offset="1" stop-color="#FF3E55"/></linearGradient><filter id="filter0_d" x="-16" y="48" width="408" height="269" filterUnits="userSpaceOnUse" color-interpolation-filters="sRGB"><feFlood flood-opacity="0" result="BackgroundImageFix"/><feColorMatrix in="SourceAlpha" values="0 0 0 0 0 0 0 0 0 0 0 0 0 0 0 0 0 0 127 0"/><feOffset dy="20"/><feGaussianBlur stdDeviation="20"/><feColorMatrix values="0 0 0 0 0.421822 0 0 0 0 0.554338 0 0 0 0 0.89371 0 0 0 0.243444 0"/><feBlend in2="BackgroundImageFix" result="effect1_dropShadow"/><feBlend in="SourceGraphic" in2="effect1_dropShadow" result="shape"/></filter></defs></svg>